<svg width="47" height="26" viewBox="0 0 47 26" fill="none" xmlns="http://www.w3.org/2000/svg">
<path fill-rule="evenodd" clip-rule="evenodd" d="M0.531016 0.545465C0.698915 0.37256 0.898372 0.235378 1.11796 0.141778C1.33755 0.0481783 1.57297 0 1.81071 0C2.04846 0 2.28387 0.0481783 2.50346 0.141778C2.72305 0.235378 2.92251 0.37256 3.09041 0.545465L23.5005 21.5147L43.9105 0.545465C44.0786 0.37284 44.2781 0.235905 44.4977 0.142481C44.7172 0.0490571 44.9526 0.000972091 45.1902 0.000972091C45.4279 0.000972091 45.6632 0.0490571 45.8828 0.142481C46.1024 0.235905 46.3019 0.37284 46.4699 0.545465C46.638 0.718091 46.7713 0.923026 46.8622 1.14857C46.9532 1.37412 47 1.61586 47 1.85999C47 2.10412 46.9532 2.34586 46.8622 2.5714C46.7713 2.79695 46.638 3.00188 46.4699 3.17451L24.7802 25.4545C24.6123 25.6274 24.4128 25.7646 24.1932 25.8582C23.9736 25.9518 23.7382 26 23.5005 26C23.2627 26 23.0273 25.9518 22.8077 25.8582C22.5881 25.7646 22.3887 25.6274 22.2208 25.4545L0.531016 3.17451C0.362691 3.00204 0.229144 2.79715 0.138024 2.57159C0.0469036 2.34602 0 2.1042 0 1.85999C0 1.61577 0.0469036 1.37395 0.138024 1.14839C0.229144 0.922819 0.362691 0.717934 0.531016 0.545465V0.545465Z" fill="black"/>
</svg>
