<svg width="31" height="32" viewBox="0 0 31 32" fill="none" xmlns="http://www.w3.org/2000/svg">
<path d="M15.5 0C11.2937 0 10.7648 0.02 9.11206 0.096C7.45938 0.176 6.33369 0.444 5.3475 0.84C4.31306 1.24164 3.37608 1.87165 2.60206 2.686C1.81365 3.48539 1.2034 4.45248 0.81375 5.52C0.430125 6.536 0.168563 7.7 0.093 9.4C0.019375 11.11 0 11.654 0 16.002C0 20.346 0.019375 20.89 0.093 22.596C0.1705 24.3 0.430125 25.462 0.81375 26.48C1.21094 27.532 1.73988 28.424 2.60206 29.314C3.46231 30.204 4.32644 30.752 5.34556 31.16C6.33369 31.556 7.45744 31.826 9.10819 31.904C10.7628 31.98 11.2898 32 15.5 32C19.7102 32 20.2353 31.98 21.8899 31.904C23.5387 31.824 24.6683 31.556 25.6544 31.16C26.6882 30.7582 27.6245 30.1282 28.3979 29.314C29.2601 28.424 29.7891 27.532 30.1863 26.48C30.5679 25.462 30.8295 24.3 30.907 22.596C30.9806 20.89 31 20.346 31 16C31 11.654 30.9806 11.11 30.907 9.402C30.8295 7.7 30.5679 6.536 30.1863 5.52C29.7967 4.45245 29.1864 3.48535 28.3979 2.686C27.6242 1.87135 26.6871 1.24129 25.6525 0.84C24.6644 0.444 23.5368 0.174 21.8879 0.096C20.2333 0.02 19.7083 0 15.4961 0H15.5019H15.5ZM14.1108 2.884H15.5019C19.6404 2.884 20.1306 2.898 21.7639 2.976C23.2752 3.046 24.0967 3.308 24.6431 3.526C25.3657 3.816 25.8831 4.164 26.4256 4.724C26.9681 5.284 27.3033 5.816 27.5842 6.564C27.7973 7.126 28.0492 7.974 28.117 9.534C28.1926 11.22 28.2081 11.726 28.2081 15.996C28.2081 20.266 28.1926 20.774 28.117 22.46C28.0492 24.02 27.7954 24.866 27.5842 25.43C27.3357 26.1247 26.9391 26.7529 26.4236 27.268C25.8811 27.828 25.3658 28.174 24.6411 28.464C24.0986 28.684 23.2771 28.944 21.7639 29.016C20.1306 29.092 19.6404 29.11 15.5019 29.11C11.3634 29.11 10.8713 29.092 9.238 29.016C7.72675 28.944 6.90719 28.684 6.36081 28.464C5.68753 28.2078 5.07843 27.7992 4.57831 27.268C4.06245 26.7521 3.66521 26.1233 3.41581 25.428C3.20463 24.866 2.95081 24.018 2.883 22.458C2.80938 20.772 2.79387 20.266 2.79387 15.992C2.79387 11.72 2.80938 11.216 2.883 9.53C2.95275 7.97 3.20463 7.122 3.41775 6.558C3.69869 5.812 4.03581 5.278 4.57831 4.718C5.12081 4.158 5.63619 3.812 6.36081 3.522C6.90719 3.302 7.72675 3.042 9.238 2.97C10.6679 2.902 11.222 2.882 14.1108 2.88V2.884ZM23.7751 5.54C23.5308 5.54 23.2889 5.58966 23.0633 5.68615C22.8376 5.78264 22.6326 5.92407 22.4598 6.10236C22.2871 6.28064 22.1501 6.4923 22.0566 6.72525C21.9632 6.95819 21.9151 7.20786 21.9151 7.46C21.9151 7.71214 21.9632 7.96181 22.0566 8.19475C22.1501 8.4277 22.2871 8.63936 22.4598 8.81765C22.6326 8.99593 22.8376 9.13736 23.0633 9.23385C23.2889 9.33034 23.5308 9.38 23.7751 9.38C24.2684 9.38 24.7415 9.17772 25.0903 8.81765C25.4391 8.45757 25.6351 7.96922 25.6351 7.46C25.6351 6.95078 25.4391 6.46242 25.0903 6.10236C24.7415 5.74229 24.2684 5.54 23.7751 5.54ZM15.5019 7.784C14.4461 7.767 13.3976 7.96697 12.4174 8.37228C11.4372 8.77759 10.5449 9.38014 9.79242 10.1448C9.03996 10.9096 8.44239 11.8211 8.0345 12.8265C7.62662 13.8319 7.41656 14.911 7.41656 16.001C7.41656 17.091 7.62662 18.1701 8.0345 19.1755C8.44239 20.1809 9.03996 21.0924 9.79242 21.8572C10.5449 22.6219 11.4372 23.2244 12.4174 23.6297C13.3976 24.035 14.4461 24.235 15.5019 24.218C17.5916 24.1843 19.5847 23.3038 21.0509 21.7665C22.5171 20.2292 23.3389 18.1583 23.3389 16.001C23.3389 13.8437 22.5171 11.7728 21.0509 10.2355C19.5847 8.69817 17.5916 7.81765 15.5019 7.784ZM15.5019 10.666C16.8724 10.666 18.1867 11.228 19.1558 12.2283C20.1248 13.2286 20.6693 14.5853 20.6693 16C20.6693 17.4147 20.1248 18.7714 19.1558 19.7717C18.1867 20.772 16.8724 21.334 15.5019 21.334C14.1315 21.334 12.8172 20.772 11.8481 19.7717C10.879 18.7714 10.3346 17.4147 10.3346 16C10.3346 14.5853 10.879 13.2286 11.8481 12.2283C12.8172 11.228 14.1315 10.666 15.5019 10.666Z" fill="black"/>
</svg>
