<svg width="32" height="26" viewBox="0 0 32 26" fill="none" xmlns="http://www.w3.org/2000/svg">
<path d="M10.052 26C22.128 26 28.734 15.9945 28.734 7.33299C28.734 7.05301 28.734 6.76902 28.722 6.48904C30.0081 5.55806 31.1181 4.40545 32 3.08522C30.7986 3.61489 29.5255 3.96399 28.222 4.12117C29.5951 3.30049 30.6234 2.00922 31.116 0.48736C29.826 1.25157 28.414 1.78804 26.942 2.07328C25.9524 1.01938 24.6428 0.321205 23.2162 0.0868966C21.7895 -0.147411 20.3254 0.0952241 19.0507 0.777219C17.7759 1.45921 16.7616 2.54251 16.1649 3.8593C15.5682 5.17609 15.4224 6.6529 15.75 8.06096C13.1395 7.93007 10.5856 7.25194 8.25409 6.07055C5.92254 4.88916 3.86537 3.2309 2.216 1.20332C1.37868 2.64941 1.12315 4.35996 1.50129 5.9876C1.87944 7.61524 2.86291 9.03796 4.252 9.96685C3.21108 9.93149 2.19304 9.65199 1.28 9.1509V9.24089C1.28179 10.7558 1.80661 12.2236 2.76575 13.3962C3.72488 14.5688 5.0595 15.3743 6.544 15.6766C5.98053 15.8318 5.39846 15.9092 4.814 15.9065C4.40197 15.9078 3.99076 15.8696 3.586 15.7925C4.00557 17.0966 4.82255 18.2367 5.92249 19.0533C7.02244 19.8699 8.35027 20.322 9.72 20.3463C7.39311 22.1738 4.5188 23.165 1.56 23.1602C1.03864 23.1624 0.517646 23.1323 0 23.0702C3.00303 24.9846 6.4906 26.0011 10.052 26V26Z" fill="black"/>
</svg>
