<svg width="47" height="26" viewBox="0 0 47 26" fill="none" xmlns="http://www.w3.org/2000/svg">
<path fill-rule="evenodd" clip-rule="evenodd" d="M46.469 25.4545C46.3011 25.6274 46.1016 25.7646 45.882 25.8582C45.6624 25.9518 45.427 26 45.1893 26C44.9515 26 44.7161 25.9518 44.4965 25.8582C44.2769 25.7646 44.0775 25.6274 43.9096 25.4545L23.4995 4.48532L3.08946 25.4545C2.92141 25.6272 2.7219 25.7641 2.50233 25.8575C2.28276 25.9509 2.04742 25.999 1.80976 25.999C1.5721 25.999 1.33676 25.9509 1.11719 25.8575C0.897623 25.7641 0.698117 25.6272 0.530065 25.4545C0.362013 25.2819 0.228706 25.077 0.137757 24.8514C0.0468081 24.6259 -1.26086e-06 24.3841 -1.26086e-06 24.14C-1.26086e-06 23.8959 0.0468081 23.6541 0.137757 23.4286C0.228706 23.2031 0.362013 22.9981 0.530065 22.8255L22.2198 0.545465C22.3877 0.37256 22.5872 0.23538 22.8068 0.14178C23.0264 0.04818 23.2618 -4.27003e-08 23.4995 -4.27003e-08C23.7373 -4.27003e-08 23.9727 0.04818 24.1923 0.14178C24.4119 0.23538 24.6113 0.37256 24.7792 0.545465L46.469 22.8255C46.6373 22.998 46.7709 23.2028 46.862 23.4284C46.9531 23.654 47 23.8958 47 24.14C47 24.3842 46.9531 24.626 46.862 24.8516C46.7709 25.0772 46.6373 25.2821 46.469 25.4545V25.4545Z" fill="black"/>
</svg>
